<svg width="720" height="700" viewBox="0 0 720 700" fill="none" xmlns="http://www.w3.org/2000/svg">
<path d="M1257.68 -728C1206.67 -643.461 1150.34 -561.634 1082.83 -489.581C1060.94 -466.22 1037.74 -443.78 1010.96 -426.242C956.347 -390.48 890.459 -377.199 830.268 -351.933C753.821 -319.848 686.213 -267.322 635.543 -201.764C597.418 -152.433 558.45 -88.3484 506.068 -52.7834C458.481 -20.4748 381.295 -42.5628 327.153 -40.1943C271.699 -37.7658 217.529 -17.878 172.585 14.4714C149.041 31.4197 127.933 51.8266 110.466 75.0038C93.7644 97.1698 84.6535 128.374 50.3017 122.833C38.9473 121.002 28.8406 114.8 18.019 110.901C-19.5885 97.3525 -65.9275 116.14 -83.4784 152.056" stroke="#1A3447" stroke-opacity="0.2" stroke-width="0.552088" stroke-miterlimit="10"/>
<path d="M1255.13 -724.917C1206.12 -640.47 1150.81 -558.522 1083.7 -486.803C1061.37 -462.903 1037.44 -440.492 1010.38 -422.216C977.72 -400.211 941.023 -386.049 903.793 -372.749C878.379 -363.669 852.716 -354.993 827.911 -344.506C778.912 -323.784 733.138 -295.555 692.68 -261.686C669.024 -241.882 647.193 -220.145 627.598 -196.782C613.814 -180.411 599.932 -162.4 585.465 -144.429C565.101 -119.193 543.566 -94.0424 519.509 -73.2419C510.878 -65.7633 501.925 -58.8464 492.595 -52.7254C454.013 -27.4481 397.858 -34.0961 349.349 -35.6954C336.334 -36.1495 323.869 -36.2413 312.429 -35.2544C265.348 -31.33 219.595 -14.8245 179.829 11.0292C172.981 15.4791 166.308 20.2078 159.83 25.2018C136.729 43.0064 116 64.1828 98.5284 87.8894C88.1828 101.931 80.5615 119.275 68.068 129.367C60.3761 135.582 50.8591 138.987 37.7573 137.276C26.3103 135.78 16.0243 130.084 5.03824 126.563C-33.11 114.299 -79.8954 133.075 -98.3899 169.063" stroke="#1A3447" stroke-opacity="0.2" stroke-width="0.552088" stroke-miterlimit="10"/>
<path d="M1252.59 -721.837C1205.57 -637.48 1151.28 -555.413 1084.57 -484.027C1061.78 -459.584 1037.13 -437.203 1009.81 -418.196C976.935 -395.443 939.983 -380.43 902.385 -366.443C876.712 -356.89 850.733 -347.815 825.544 -337.082C775.783 -315.891 728.961 -287.818 687.211 -254.742C662.8 -235.405 640.142 -214.345 619.643 -191.804C605.175 -176.011 590.613 -158.684 575.487 -141.427C554.163 -117.195 531.689 -93.1026 506.796 -72.8185C497.884 -65.5272 488.675 -58.7354 479.106 -52.6649C439.452 -27.576 383.033 -32.5427 334.53 -32.2298C321.536 -32.1923 309.109 -31.7481 297.695 -30.3065C250.861 -24.3893 205.708 -6.29554 166.683 21.0263C159.965 25.7235 153.424 30.703 147.068 35.9352C124.407 54.5976 104.056 76.5435 86.5849 100.781C76.2351 115.145 68.4219 132.645 55.7457 143.037C47.9328 149.441 38.3161 153.035 25.2074 151.725C13.6607 150.569 3.20401 145.379 -7.94809 142.231C-46.6334 131.251 -93.8723 150.018 -113.305 186.072" stroke="#1A3447" stroke-opacity="0.2" stroke-width="0.552088" stroke-miterlimit="10"/>
<path d="M1250.04 -718.759C1205.03 -634.492 1151.76 -552.301 1085.45 -481.254C1062.2 -456.27 1036.84 -433.92 1009.24 -414.175C976.161 -390.671 938.953 -374.81 900.985 -360.136C875.055 -350.106 848.766 -340.634 823.184 -329.662C772.666 -307.999 724.791 -280.084 681.751 -247.805C656.584 -228.931 633.158 -208.492 611.694 -186.833C596.581 -171.579 581.295 -154.976 565.519 -138.433C543.23 -115.203 519.826 -92.1724 494.094 -72.4082C484.905 -65.306 475.433 -58.6359 465.634 -52.6157C424.905 -27.7137 368.231 -30.8739 319.722 -28.7775C306.751 -28.2185 294.359 -27.2893 282.972 -25.3754C236.38 -17.5465 191.828 2.21814 153.551 31.0084C146.962 35.9581 140.55 41.1813 134.321 46.6537C112.103 66.1724 92.1296 88.8878 74.6599 113.657C64.306 128.342 56.3044 145.998 43.4418 156.691C35.5097 163.288 25.7948 167.074 12.6708 166.155C1.02592 165.342 -9.60465 160.651 -20.9228 157.878C-60.1488 148.182 -107.836 166.933 -128.21 203.064" stroke="#1A3447" stroke-opacity="0.2" stroke-width="0.552088" stroke-miterlimit="10"/>
<path d="M1247.5 -715.676C1204.48 -631.501 1152.23 -549.188 1086.32 -478.472C1062.63 -452.945 1036.58 -430.574 1008.67 -410.149C975.43 -385.833 937.923 -369.187 899.586 -353.82C873.399 -343.319 846.797 -333.444 820.829 -322.23C769.55 -300.094 720.627 -272.335 676.294 -240.853C650.373 -222.447 626.128 -202.662 603.751 -181.847C587.961 -167.157 571.987 -151.255 555.554 -135.419C532.305 -113.194 507.963 -91.2212 481.392 -71.977C471.924 -65.0622 462.192 -58.5154 452.161 -52.549C410.36 -27.8355 353.429 -29.279 304.913 -25.3077C291.963 -24.2484 279.612 -22.8147 268.25 -20.4285C221.909 -10.6911 177.953 10.746 140.417 41.0044C133.955 46.2031 127.673 51.6736 121.571 57.3861C99.7969 77.761 80.1976 101.248 62.7272 126.544C52.3691 141.552 44.1776 159.359 31.1302 170.357C23.0788 177.147 13.2622 181.126 0.131552 180.599C-11.615 180.131 -22.4142 175.941 -33.8984 173.542C-73.6651 165.131 -121.802 183.872 -143.115 220.068" stroke="#1A3447" stroke-opacity="0.2" stroke-width="0.552088" stroke-miterlimit="10"/>
<path d="M1244.96 -712.598C1203.93 -628.512 1152.7 -546.078 1087.19 -475.698C1063.04 -449.631 1036.29 -427.277 1008.09 -406.13C974.658 -381.054 936.887 -363.569 898.181 -347.515C871.737 -336.538 844.824 -326.266 818.464 -314.812C766.428 -292.205 716.455 -264.605 670.83 -233.916C644.153 -215.971 619.09 -196.851 595.801 -176.877C579.337 -162.755 562.71 -147.505 545.582 -132.424C521.42 -111.143 496.052 -90.3565 468.686 -71.5655C458.923 -64.8615 448.95 -58.4163 438.679 -52.5004C395.803 -27.9738 338.621 -27.7074 290.098 -21.8524C277.173 -20.2945 264.855 -18.353 253.519 -15.4944C207.427 -3.86092 164.069 19.261 127.275 50.9911C120.945 56.4406 114.792 62.1548 108.81 68.1107C87.4802 89.3454 68.2552 113.603 50.784 139.428C40.4217 154.757 32.0383 172.721 18.8082 184.019C10.6375 191.001 0.7192 195.174 -12.418 195.039C-24.2663 194.916 -35.2342 191.226 -46.8844 189.201C-87.1882 182.073 -135.775 200.804 -158.031 237.073" stroke="#1A3447" stroke-opacity="0.2" stroke-width="0.552088" stroke-miterlimit="10"/>
<path d="M1242.41 -709.515C1203.39 -625.522 1153.18 -542.965 1088.06 -472.92C1063.47 -446.311 1036 -423.981 1007.52 -402.104C973.891 -376.268 935.853 -357.948 896.779 -341.203C870.077 -329.753 842.85 -319.078 816.107 -307.385C763.311 -284.304 712.29 -256.861 665.37 -226.971C637.938 -209.494 612.053 -191.03 587.855 -171.898C570.712 -158.344 553.402 -143.784 535.616 -129.422C510.496 -109.134 484.183 -89.4284 455.984 -71.1467C445.942 -64.6353 435.709 -58.3047 425.205 -52.4462C381.257 -28.1081 323.824 -26.1318 275.288 -18.3951C262.388 -16.3384 250.109 -13.8961 238.795 -10.5547C192.955 2.97326 150.191 27.7817 114.138 60.98C107.934 66.6784 101.912 72.6398 96.0551 78.8322C75.1692 100.923 56.322 125.951 38.8482 152.308C28.4818 167.959 19.91 186.078 6.49347 197.677C-1.79294 204.851 -11.822 209.226 -24.9639 209.478C-36.9158 209.705 -48.0521 206.507 -59.8647 204.854C-100.709 199.011 -149.748 217.728 -172.939 254.07" stroke="#1A3447" stroke-opacity="0.2" stroke-width="0.552088" stroke-miterlimit="10"/>
<path d="M1239.86 -706.436C1202.83 -622.533 1153.65 -539.857 1088.93 -470.144C1063.88 -442.995 1035.7 -420.689 1006.94 -398.084C973.114 -371.491 934.813 -352.329 895.371 -334.897C868.411 -322.97 840.873 -311.898 813.739 -299.965C760.185 -276.413 708.11 -249.127 659.902 -220.031C631.718 -203.019 605.008 -185.215 579.898 -166.924C562.073 -153.936 544.08 -140.066 525.638 -126.42C499.557 -107.127 472.306 -88.5009 443.272 -70.7283C432.952 -64.4096 422.458 -58.1971 411.718 -52.3908C366.695 -28.2396 309.016 -24.5603 260.469 -14.9383C247.592 -12.3865 235.351 -9.43799 224.06 -5.61913C178.473 9.79457 136.299 36.2998 100.992 70.9683C94.9149 76.9156 89.0244 83.1279 83.2934 89.5569C62.8509 112.504 44.3779 138.303 26.9033 165.188C16.5328 181.16 7.76914 199.436 -5.8302 211.335C-14.2375 218.699 -24.3706 223.281 -37.5168 223.911C-49.5759 224.489 -60.8753 221.785 -72.854 220.507C-114.237 215.943 -163.724 234.653 -187.861 271.064" stroke="#1A3447" stroke-opacity="0.2" stroke-width="0.552088" stroke-miterlimit="10"/>
<path d="M1237.32 -703.358C1202.29 -619.544 1154.12 -536.746 1089.81 -467.368C1064.31 -439.675 1035.42 -417.398 1006.38 -394.06C972.346 -366.714 933.784 -346.706 893.975 -328.583C866.759 -316.185 838.908 -304.711 811.383 -292.534C757.07 -268.509 703.945 -241.383 654.445 -213.079C625.503 -196.533 597.966 -179.393 571.955 -161.939C553.446 -149.52 534.775 -136.339 515.676 -123.412C488.635 -105.111 460.445 -87.5641 430.573 -70.3027C419.971 -64.1749 409.222 -58.0838 398.246 -52.3296C352.151 -28.367 294.225 -22.9882 245.662 -11.474C232.809 -8.42715 220.607 -4.97415 209.341 -0.677755C164.004 16.6145 122.426 44.8221 87.8646 80.9607C81.9199 87.1588 76.1581 93.6149 70.547 100.287C50.548 124.091 32.4493 150.66 14.9756 178.077C4.60094 194.371 -4.35269 212.799 -18.1368 225.003C-26.6634 232.559 -36.904 237.35 -50.0509 238.357C-62.2156 239.29 -73.6815 237.073 -85.8246 236.173C-127.749 232.893 -177.685 251.593 -202.758 288.074" stroke="#1A3447" stroke-opacity="0.2" stroke-width="0.552088" stroke-miterlimit="10"/>
<path d="M1234.78 -700.275C1201.74 -616.554 1154.6 -533.634 1090.68 -464.589C1064.72 -436.355 1035.12 -414.103 1005.8 -390.034C971.567 -361.935 932.743 -341.081 892.565 -322.271C865.091 -309.396 836.924 -297.527 809.016 -285.11C753.946 -260.613 699.769 -233.642 648.978 -206.14C619.284 -190.058 590.92 -173.581 564.004 -156.963C544.811 -145.112 525.458 -132.618 505.702 -120.411C477.7 -103.106 448.573 -86.6344 417.861 -69.8841C406.981 -63.9489 395.971 -57.976 384.76 -52.274C337.59 -28.4982 279.414 -21.4236 230.842 -8.01164C218.015 -4.47133 205.845 -0.514201 194.604 4.2633C149.522 23.4273 108.536 53.3442 74.7152 90.9509C68.8974 97.398 63.2659 104.101 57.782 111.014C38.2264 135.673 20.5072 163.016 3.02915 190.962C-7.34611 207.576 -16.4952 226.163 -30.4621 238.666C-39.108 246.415 -49.4561 251.416 -62.6075 252.8C-74.8813 254.091 -86.5084 252.362 -98.8192 251.832C-141.28 249.836 -191.672 268.524 -217.685 305.075" stroke="#1A3447" stroke-opacity="0.2" stroke-width="0.552088" stroke-miterlimit="10"/>
<path d="M1232.23 -697.197C1201.2 -613.568 1155.07 -530.523 1091.55 -461.815C1065.15 -433.038 1034.83 -410.814 1005.23 -386.013C970.794 -357.159 931.715 -335.463 891.162 -315.962C863.429 -302.614 834.953 -290.344 806.655 -277.684C750.823 -252.714 695.597 -225.903 643.514 -199.193C613.062 -183.577 583.87 -167.768 556.054 -151.983C536.175 -140.705 516.143 -128.894 495.731 -117.402C466.762 -101.095 436.703 -85.6973 405.158 -69.4562C394 -63.7136 382.729 -57.8589 371.285 -52.2107C323.043 -28.6234 264.621 -19.8581 216.031 -4.54524C203.228 -0.509829 191.097 3.94829 179.878 9.20854C135.048 30.237 94.6567 61.8703 61.5778 100.949C55.8884 107.648 50.3857 114.595 45.0288 121.748C25.9166 147.264 8.57171 175.378 -8.90349 203.849C-19.2829 220.786 -28.6204 239.528 -42.7736 252.332C-51.5388 260.274 -61.9928 265.487 -75.1465 267.245C-87.5278 268.896 -99.3203 267.675 -111.795 267.497C-154.798 266.877 -205.635 285.461 -232.591 322.085" stroke="#1A3447" stroke-opacity="0.2" stroke-width="0.552088" stroke-miterlimit="10"/>
<path d="M1229.68 -694.117C1200.65 -610.575 1155.54 -527.413 1092.42 -459.041C1065.57 -429.724 1034.53 -407.527 1004.65 -381.994C970.018 -352.392 930.679 -329.846 889.757 -309.658C861.767 -295.833 832.979 -283.166 804.29 -270.266C747.701 -244.825 691.421 -218.171 638.05 -192.255C606.845 -177.103 576.816 -161.962 548.105 -147.012C527.54 -136.307 506.826 -125.183 485.762 -114.409C455.831 -99.1 424.838 -84.7712 392.453 -69.0448C381.014 -63.4896 369.486 -57.7598 357.804 -52.1621C308.486 -28.7618 249.816 -18.3094 201.215 -1.09364C188.436 3.43167 176.341 8.39233 165.147 14.1425C120.565 37.0284 80.7685 70.3868 48.4337 110.932C42.8747 117.879 37.504 125.077 32.269 132.467C13.6002 158.84 -3.37041 187.725 -20.8447 216.728C-31.2283 233.985 -40.7593 252.881 -55.0937 265.989C-63.9746 274.122 -74.54 279.555 -87.6958 281.676C-100.187 283.693 -112.14 282.952 -124.782 283.144C-168.322 283.807 -219.613 302.382 -247.506 339.076" stroke="#1A3447" stroke-opacity="0.2" stroke-width="0.552088" stroke-miterlimit="10"/>
<path d="M1227.14 -691.034C1200.1 -607.585 1156.01 -524.297 1093.29 -456.258C1065.99 -426.399 1034.24 -404.232 1004.08 -377.963C969.243 -347.611 929.643 -324.219 888.354 -303.34C860.108 -289.044 831.007 -275.974 801.931 -262.833C744.582 -236.919 687.254 -210.421 632.589 -185.301C600.627 -170.616 569.77 -156.141 540.155 -142.023C518.905 -131.891 497.509 -121.453 475.789 -111.395C444.892 -97.0842 412.968 -83.8255 379.746 -68.6155C368.029 -63.2529 356.24 -57.6413 344.327 -52.0938C293.938 -28.882 235.017 -16.7461 186.408 2.37974C173.654 7.39494 161.594 12.8582 150.428 19.093C106.093 43.8327 66.8957 78.9183 35.3031 120.935C29.8725 128.134 24.6306 135.576 19.5191 143.209C1.29544 170.44 -15.299 200.091 -32.776 229.627C-43.1637 247.207 -52.883 266.258 -67.4038 279.667C-76.4056 287.99 -87.0808 293.645 -100.237 296.134C-112.832 298.518 -124.952 298.255 -137.76 298.822C-181.835 300.771 -233.579 319.329 -262.416 356.096" stroke="#1A3447" stroke-opacity="0.2" stroke-width="0.552088" stroke-miterlimit="10"/>
<path d="M1224.6 -687.956C1199.55 -604.599 1156.35 -521.314 1094.17 -453.485C1066.35 -423.141 1033.94 -400.949 1003.51 -373.946C968.465 -342.846 928.61 -318.603 886.954 -297.034C858.45 -282.261 829.035 -268.792 799.571 -255.413C741.465 -229.027 683.087 -202.689 627.129 -178.365C594.414 -164.144 562.72 -150.346 532.208 -137.054C510.272 -127.498 488.194 -117.747 465.825 -108.399C433.961 -95.086 401.112 -82.899 367.045 -68.202C355.052 -63.0285 342.999 -57.5387 330.85 -52.0434C279.386 -29.0184 220.217 -15.2042 171.596 5.83333C158.868 11.3384 146.843 17.3042 135.7 24.0253C91.6103 50.6153 53.0144 87.4316 22.166 130.915C16.8622 138.363 11.7506 146.052 6.76625 153.925C-11.014 182.013 -27.2342 212.435 -44.7119 242.499C-55.1038 260.4 -65.015 279.607 -79.7186 293.317C-88.8397 301.832 -99.6211 307.709 -112.779 310.562C-125.482 313.315 -137.764 313.529 -150.735 314.468C-195.346 317.704 -247.545 336.25 -277.318 373.086" stroke="#1A3447" stroke-opacity="0.2" stroke-width="0.552088" stroke-miterlimit="10"/>
<path d="M1222.05 -684.876C1199.01 -601.608 1156.82 -518.205 1095.04 -450.709C1066.76 -419.825 1033.64 -397.665 1002.93 -369.925C967.68 -338.078 927.571 -312.984 885.546 -290.727C856.783 -275.482 827.059 -261.612 797.204 -247.989C738.336 -221.133 678.911 -194.948 621.66 -171.42C588.187 -157.665 555.658 -144.54 524.253 -132.076C501.624 -123.098 478.872 -114.029 455.847 -105.397C423.016 -93.0843 389.239 -81.9604 354.33 -67.7817C342.057 -62.7956 329.75 -57.4271 317.364 -51.9875C264.828 -29.1511 205.407 -13.657 156.773 9.29221C144.067 15.2888 132.081 21.7555 120.962 28.963C77.1107 57.3977 39.1229 95.9502 9.01661 140.905C3.8432 148.601 -1.13803 156.537 -5.99881 164.651C-23.3356 193.596 -39.1799 224.793 -56.6584 255.384C-67.056 273.603 -77.1556 292.966 -92.044 306.98C-101.284 315.689 -112.174 321.792 -125.332 325.005C-138.145 328.132 -150.586 328.811 -163.726 330.126C-208.874 334.645 -261.523 353.181 -292.241 390.086" stroke="#1A3447" stroke-opacity="0.2" stroke-width="0.552088" stroke-miterlimit="10"/>
<path d="M1219.51 -681.795C1198.46 -598.618 1157.3 -515.091 1095.91 -447.933C1067.19 -416.508 1033.34 -394.379 1002.37 -365.901C966.906 -333.307 926.541 -307.361 884.148 -284.417C855.128 -268.695 825.092 -254.428 794.849 -240.567C735.224 -213.24 674.746 -187.212 616.203 -164.477C581.978 -151.186 548.612 -138.737 516.311 -127.1C492.994 -118.698 469.561 -110.316 445.882 -102.396C412.084 -91.0897 377.378 -81.0237 341.631 -67.3649C329.081 -62.5678 316.511 -57.3211 303.893 -51.9353C250.281 -29.2858 190.609 -12.1205 141.967 12.7475C129.284 19.2305 117.334 26.1997 106.241 33.9007C62.6303 64.1749 25.245 104.471 -4.11547 150.896C-9.16045 158.844 -14.0113 167.027 -18.7466 175.378C-35.64 205.179 -51.1064 237.145 -68.5876 268.269C-78.9894 286.811 -89.2773 306.329 -104.352 320.644C-113.712 329.545 -124.708 335.879 -137.872 339.448C-150.79 342.948 -163.395 344.101 -176.701 345.79C-222.387 351.592 -275.491 370.115 -307.144 407.093" stroke="#1A3447" stroke-opacity="0.2" stroke-width="0.552088" stroke-miterlimit="10"/>
<path d="M1216.96 -678.715C1197.91 -595.631 1157.91 -511.858 1096.78 -445.157C1067.66 -413.13 1033.04 -391.093 1001.79 -361.881C966.121 -328.539 925.506 -301.743 882.74 -278.11C853.464 -261.917 823.114 -247.251 792.482 -233.143C732.097 -205.343 670.569 -179.475 610.736 -157.538C575.753 -144.713 541.554 -132.942 508.354 -122.125C484.347 -114.307 460.236 -106.604 435.907 -99.3948C401.142 -89.0898 365.509 -80.0867 328.92 -66.9462C316.093 -62.3382 303.26 -57.2132 290.406 -51.8796C235.723 -29.4185 175.795 -10.5805 127.146 16.2099C114.489 23.1828 102.568 30.6527 91.5079 38.8402C48.1325 70.9521 11.3587 112.991 -17.2613 160.884C-22.1759 169.079 -26.9 177.512 -31.5117 186.105C-47.9617 216.762 -63.0539 249.499 -80.5358 281.151C-90.9417 300.014 -101.422 319.689 -116.675 334.303C-126.152 343.391 -137.257 349.961 -150.424 353.882C-163.448 357.758 -176.223 359.351 -189.691 361.443C-235.929 368.436 -289.467 387.041 -322.066 424.088" stroke="#1A3447" stroke-opacity="0.2" stroke-width="0.552088" stroke-miterlimit="10"/>
<path d="M1214.41 -675.636C1197.36 -592.639 1158.38 -508.745 1097.65 -442.379C1068.09 -409.813 1032.74 -387.806 1001.22 -357.854C965.341 -323.768 924.471 -296.122 881.34 -271.794C851.807 -255.124 821.142 -240.059 790.122 -225.714C728.98 -197.442 666.4 -171.728 605.273 -150.587C569.538 -138.226 534.501 -127.136 500.406 -117.141C475.711 -109.903 450.921 -102.889 425.936 -96.3864C390.205 -87.0877 353.643 -79.1426 316.216 -66.5219C303.112 -62.1029 290.02 -57.1012 276.93 -51.8198C221.171 -29.5457 160.985 -9.0419 112.338 19.6712C99.7004 27.132 87.8172 35.0992 76.7836 43.7802C33.6382 77.7277 -2.51897 121.512 -30.3967 170.877C-35.1829 179.325 -39.7747 187.999 -44.2646 196.83C-60.2711 228.343 -74.9854 261.85 -92.47 294.035C-102.88 313.22 -113.55 333.047 -128.989 347.965C-138.585 357.247 -149.794 364.05 -162.965 368.322C-176.091 372.579 -189.035 374.634 -202.669 377.1C-249.445 385.376 -303.436 403.972 -336.975 441.09" stroke="#1A3447" stroke-opacity="0.2" stroke-width="0.552088" stroke-miterlimit="10"/>
<path d="M1211.87 -672.554C1196.82 -589.65 1158.85 -505.634 1098.53 -439.602C1068.51 -406.493 1032.45 -384.523 1000.65 -353.833C964.564 -319.004 923.441 -290.502 879.941 -265.487C850.148 -248.345 819.174 -232.879 787.767 -218.291C725.865 -189.546 662.235 -163.992 599.82 -143.645C563.327 -131.75 527.459 -121.343 492.467 -112.166C467.081 -105.511 441.613 -99.1768 415.978 -93.3884C379.276 -85.098 341.792 -78.205 303.522 -66.1027C290.138 -61.8711 276.786 -56.9928 263.461 -51.7635C206.627 -29.6762 146.182 -7.5069 97.5334 23.1306C84.9176 31.0741 73.0662 39.5455 62.0629 48.7184C19.1442 84.4944 -16.3931 130.031 -43.5267 180.863C-48.1861 189.559 -52.6475 198.481 -57.0103 207.552C-72.5734 239.921 -86.9118 274.203 -104.395 306.91C-114.809 326.417 -125.671 346.401 -141.293 361.619C-151.008 371.094 -162.317 378.133 -175.5 382.756C-188.728 387.396 -201.841 389.913 -215.641 392.753C-262.959 402.311 -317.397 420.894 -351.874 458.088" stroke="#1A3447" stroke-opacity="0.2" stroke-width="0.552088" stroke-miterlimit="10"/>
<path d="M1209.33 -669.475C1196.27 -586.663 1159.32 -502.526 1099.4 -436.826C1068.93 -403.177 1032.14 -381.24 1000.07 -349.808C963.775 -314.234 922.399 -284.878 878.53 -259.176C848.48 -241.556 817.195 -225.693 785.397 -210.866C722.737 -181.65 658.055 -156.25 594.346 -136.703C557.1 -125.272 520.392 -115.548 484.507 -107.191C458.434 -101.12 432.283 -95.4677 405.997 -90.3845C368.328 -83.1004 329.917 -77.2617 290.807 -65.6828C277.146 -61.6403 263.531 -56.8837 249.974 -51.7082C192.068 -29.8095 131.361 -5.97289 82.7126 26.5925C70.1167 35.024 58.3025 43.9928 47.3261 53.6591C4.63058 91.2653 -30.2869 138.554 -56.6748 190.856C-61.2021 199.803 -65.5367 208.974 -69.774 218.282C-84.892 251.511 -98.8578 286.56 -116.34 319.799C-126.759 339.627 -137.809 359.766 -153.615 375.289C-163.45 384.957 -174.862 392.233 -188.05 397.205C-201.382 402.23 -214.663 405.204 -228.627 408.422C-276.483 419.262 -331.374 437.837 -366.792 475.098" stroke="#1A3447" stroke-opacity="0.2" stroke-width="0.552088" stroke-miterlimit="10"/>
<path d="M1206.78 -666.397C1195.72 -583.673 1159.8 -499.414 1100.27 -434.054C1069.35 -399.861 1031.84 -377.961 999.499 -345.791C962.992 -309.472 921.366 -279.262 877.129 -252.873C846.82 -234.78 815.225 -218.516 783.04 -203.448C719.62 -173.758 653.888 -148.518 588.891 -129.765C550.887 -118.8 513.348 -109.76 476.566 -102.22C449.803 -96.7326 422.975 -91.7649 396.033 -87.3888C357.397 -81.1146 318.06 -76.3265 278.106 -65.2695C264.167 -61.4108 250.294 -56.7827 236.497 -51.6578C177.516 -29.9459 116.546 -4.44559 67.9008 30.0461C55.3269 38.9603 43.5446 48.4332 32.6038 58.5933C-9.87224 98.0312 -44.1628 147.07 -69.8101 200.839C-74.2107 210.036 -78.4113 219.452 -82.5286 229.003C-97.2068 263.09 -110.791 298.907 -128.276 332.679C-138.695 352.827 -149.942 373.121 -165.93 388.948C-175.884 398.808 -187.398 406.325 -200.594 411.638C-214.026 417.05 -227.477 420.483 -241.609 424.071C-290.005 436.196 -345.343 454.759 -381.702 492.091" stroke="#1A3447" stroke-opacity="0.2" stroke-width="0.552088" stroke-miterlimit="10"/>
<path d="M1204.24 -663.314C1195.18 -580.682 1160.27 -496.301 1101.14 -431.271C1069.77 -396.538 1031.53 -374.675 998.926 -341.76C962.209 -304.7 920.332 -273.632 875.727 -246.552C845.164 -227.985 813.251 -211.32 780.678 -196.013C716.501 -165.852 649.716 -140.77 583.426 -122.809C544.67 -112.309 506.293 -103.957 468.612 -97.2293C441.162 -92.3272 413.655 -88.0428 386.06 -84.3754C346.46 -79.1127 306.19 -75.372 265.396 -64.8386C251.18 -61.1688 237.044 -56.6625 223.015 -51.5914C162.963 -30.068 101.724 -2.90596 53.0833 33.5156C40.5294 42.9177 28.7771 52.8913 17.8703 63.5416C-24.3894 104.804 -58.0496 155.599 -82.9547 210.84C-87.2269 220.289 -91.2987 229.949 -95.289 239.74C-109.524 274.684 -122.734 311.272 -140.22 345.571C-150.643 366.042 -162.078 386.491 -178.252 402.619C-188.324 412.666 -199.937 420.428 -213.148 426.089C-226.676 431.887 -240.303 435.775 -254.596 439.74C-303.532 453.15 -359.32 471.702 -396.62 509.102" stroke="#1A3447" stroke-opacity="0.2" stroke-width="0.552088" stroke-miterlimit="10"/>
<path d="M1201.69 -660.234C1194.63 -577.695 1160.74 -493.189 1102.01 -428.496C1070.19 -393.221 1031.23 -371.394 998.351 -337.741C961.421 -299.94 919.299 -268.016 874.323 -240.247C843.5 -221.207 811.276 -204.145 778.314 -188.592C713.377 -157.957 645.547 -133.033 577.962 -115.872C538.448 -105.837 499.238 -98.1723 460.662 -92.2584C432.524 -87.9449 404.335 -84.3386 376.089 -81.3763C335.522 -77.1235 294.328 -74.4299 252.691 -64.4235C238.197 -60.9376 223.802 -56.5546 209.537 -51.5357C148.409 -30.1992 86.9034 -1.38061 38.2732 36.9727C25.7376 46.8593 14.019 57.3318 3.14421 68.4775C-38.9028 111.566 -71.9291 164.116 -96.0885 220.827C-100.23 230.523 -104.175 240.432 -108.038 250.464C-121.83 286.263 -134.666 323.623 -152.151 358.453C-162.578 379.245 -174.205 399.851 -190.562 416.279C-200.753 426.52 -212.463 434.525 -225.685 440.528C-239.311 446.716 -253.11 451.06 -267.571 455.395C-317.045 470.088 -373.288 488.628 -411.523 526.101" stroke="#1A3447" stroke-opacity="0.2" stroke-width="0.552088" stroke-miterlimit="10"/>
<path d="M1199.15 -657.156C1194.09 -574.706 1161.22 -490.082 1102.88 -425.722C1070.61 -389.907 1030.86 -368.181 997.778 -333.722C960.561 -295.25 918.262 -262.402 872.918 -233.942C841.838 -214.425 809.303 -196.966 775.953 -181.175C710.259 -150.069 641.375 -125.303 572.499 -108.934C532.232 -99.3635 492.188 -92.3889 452.713 -87.2872C423.887 -83.5623 395.019 -80.6356 366.12 -78.382C324.589 -75.1408 282.484 -73.4094 239.986 -64.0117C225.219 -60.6865 210.56 -56.4552 196.06 -51.4884C133.86 -30.3405 72.0816 0.141566 23.4617 40.4267C10.9445 50.7976 -0.738756 61.7727 -11.5831 73.4103C-53.4174 118.325 -85.8135 172.631 -109.229 230.809C-113.244 240.754 -117.053 250.912 -120.798 261.183C-134.146 297.839 -146.602 335.972 -164.092 371.332C-174.523 392.445 -186.34 413.203 -202.882 429.936C-213.192 440.369 -224.998 448.617 -238.232 454.963C-251.956 461.542 -265.928 466.341 -280.555 471.05C-330.569 487.027 -387.258 505.556 -426.437 543.101" stroke="#1A3447" stroke-opacity="0.2" stroke-width="0.552088" stroke-miterlimit="10"/>
<path d="M1196.6 -654.073C1193.53 -571.713 1161.69 -486.969 1103.76 -422.944C1071.03 -386.585 1030.56 -364.889 997.207 -329.696C959.783 -290.476 917.229 -256.777 871.517 -227.63C840.178 -207.64 807.333 -189.78 773.593 -173.745C707.138 -142.166 637.206 -117.556 567.04 -101.985C526.016 -92.8808 485.142 -86.5947 444.769 -82.3052C415.253 -79.1689 385.704 -76.9766 356.153 -75.3755C313.653 -73.2215 270.616 -72.4689 227.285 -63.5891C212.241 -60.453 197.319 -56.3434 182.583 -51.4288C119.308 -30.4678 57.2594 1.67248 8.64976 43.8894C-3.84909 54.7447 -15.5023 66.2204 -26.3058 78.3537C-67.9326 125.093 -99.6896 181.155 -122.363 240.805C-126.249 251.003 -129.93 261.405 -133.548 271.916C-146.452 309.428 -158.534 348.332 -176.024 384.219C-186.46 405.655 -198.466 426.568 -215.193 443.602C-225.623 454.228 -237.526 462.719 -250.777 469.406C-264.594 476.377 -278.745 481.625 -293.536 486.712C-344.087 503.972 -401.232 522.488 -441.35 560.105" stroke="#1A3447" stroke-opacity="0.2" stroke-width="0.552088" stroke-miterlimit="10"/>
<path d="M1194.06 -650.995C1192.99 -568.728 1162.16 -483.859 1104.63 -420.168C1071.45 -383.269 1030.27 -361.603 996.638 -325.675C959.009 -285.705 916.198 -251.158 870.119 -221.32C838.526 -200.855 805.363 -182.594 771.234 -166.322C704.019 -134.269 633.038 -109.819 561.58 -95.0403C519.803 -86.4002 478.093 -80.808 436.819 -77.3257C406.619 -74.7796 376.389 -73.2617 346.182 -72.3676C302.716 -71.22 258.75 -71.5252 214.577 -63.1637C199.253 -60.215 184.071 -56.2288 169.103 -51.3679C104.756 -30.5954 42.4283 3.20266 -6.16587 47.3533C-18.6464 58.693 -30.2695 70.6694 -41.0374 83.2964C-82.4602 131.862 -113.575 189.679 -135.507 250.797C-139.263 261.242 -142.817 271.893 -146.308 282.644C-158.769 321.012 -170.477 360.687 -187.962 397.104C-198.402 418.862 -210.6 439.932 -227.51 457.265C-238.059 468.085 -250.056 476.822 -263.321 483.847C-277.229 491.215 -291.559 496.912 -306.518 502.37C-357.61 520.915 -415.201 539.419 -456.26 577.107" stroke="#1A3447" stroke-opacity="0.2" stroke-width="0.552088" stroke-miterlimit="10"/>
<path d="M1191.51 -647.916C1192.44 -565.737 1162.63 -480.75 1105.5 -417.392C1071.87 -379.949 1029.96 -358.318 996.061 -321.651C958.225 -280.933 915.16 -245.535 868.712 -215.01C836.861 -194.068 803.387 -175.411 768.872 -158.896C700.9 -126.373 628.865 -102.08 556.117 -88.099C513.582 -79.9251 471.044 -75.0214 428.871 -72.3512C397.982 -70.3937 367.078 -69.5484 336.214 -69.3702C291.788 -69.227 246.884 -70.5903 201.877 -62.7468C186.277 -59.9871 170.832 -56.1226 155.628 -51.3139C90.2063 -30.7283 27.6044 4.72963 -20.9724 50.8088C-33.4381 62.6345 -45.0276 75.1098 -55.7599 88.2306C-96.9805 138.618 -127.451 198.194 -148.641 260.784C-152.268 271.481 -155.69 282.374 -159.057 293.367C-171.073 332.595 -182.405 373.036 -199.893 409.986C-210.337 432.065 -222.725 453.287 -239.82 470.926C-250.486 481.933 -262.575 490.924 -275.858 498.286C-289.859 506.046 -304.369 512.193 -319.492 518.028C-371.125 537.858 -429.165 556.352 -471.166 594.107" stroke="#1A3447" stroke-opacity="0.2" stroke-width="0.552088" stroke-miterlimit="10"/>
<path d="M1188.97 -644.833C1191.89 -562.747 1163.11 -477.634 1106.37 -414.614C1072.29 -376.631 1029.66 -355.03 995.489 -317.629C957.446 -276.163 914.125 -239.914 867.305 -208.699C835.195 -187.285 801.412 -168.226 766.507 -151.469C697.772 -118.476 624.691 -94.3354 550.65 -81.1506C507.362 -73.4408 463.986 -69.2997 420.919 -67.3661C389.344 -66.0498 357.761 -65.828 326.24 -66.3604C280.849 -67.22 235.013 -69.6482 189.166 -62.3193C173.285 -59.7471 157.584 -56.0076 142.145 -51.2511C75.651 -30.854 12.683 6.17615 -35.7899 54.2784C-48.2611 66.5647 -59.7966 79.5644 -70.4933 93.179C-111.514 145.394 -141.341 206.725 -161.784 270.78C-165.284 281.726 -168.574 292.87 -171.819 304.101C-183.392 344.185 -194.349 385.397 -211.838 422.875C-222.288 445.272 -234.866 466.655 -252.144 484.593C-262.929 495.793 -275.109 505.028 -288.413 512.733C-302.5 520.891 -317.194 527.486 -332.483 533.695C-384.653 554.808 -443.146 573.288 -486.085 611.118" stroke="#1A3447" stroke-opacity="0.2" stroke-width="0.552088" stroke-miterlimit="10"/>
<path d="M1186.42 -641.754C1191.35 -559.759 1163.58 -474.525 1107.24 -411.839C1072.71 -373.314 1029.36 -351.742 994.917 -313.606C956.666 -271.393 913.09 -234.296 865.903 -202.391C833.535 -180.5 799.441 -161.044 764.144 -144.047C694.652 -110.582 620.517 -86.5997 545.184 -74.2073C501.143 -66.9652 456.939 -63.5003 412.968 -62.3896C380.707 -61.6548 348.445 -62.1162 316.271 -63.3573C269.919 -65.2213 223.146 -68.7076 176.46 -61.8987C160.301 -59.519 144.338 -55.8977 128.667 -51.195C61.0978 -30.9848 -2.13245 7.7214 -50.6032 57.7375C-63.0528 70.5154 -74.5872 83.9901 -85.219 98.1153C-126.15 152.075 -155.22 215.242 -174.92 280.769C-178.289 291.966 -181.454 303.355 -184.574 314.823C-195.703 355.763 -206.281 397.749 -223.774 435.755C-234.228 458.475 -246.994 480.012 -264.458 498.252C-275.363 509.644 -287.633 519.129 -300.957 527.167C-315.132 535.72 -330.01 542.761 -345.462 549.343C-398.172 571.741 -457.115 590.21 -500.994 628.111" stroke="#1A3447" stroke-opacity="0.2" stroke-width="0.552088" stroke-miterlimit="10"/>
<path d="M1183.88 -638.675C1190.8 -556.768 1164.05 -471.416 1108.12 -409.064C1073.13 -370 1029.06 -348.457 994.339 -309.585C955.883 -266.622 912.054 -228.678 864.494 -196.084C831.872 -173.722 797.459 -153.865 761.781 -136.624C691.528 -102.687 616.344 -78.864 539.721 -67.2693C494.923 -60.4898 449.889 -57.7045 405.018 -57.4184C372.075 -57.2615 339.128 -58.4045 306.299 -60.3615C258.983 -63.2281 211.279 -67.7759 163.754 -61.4869C147.315 -59.2947 131.093 -55.7967 115.186 -51.1461C46.545 -31.1244 -16.9495 9.26305 -65.4198 61.1895C-77.8494 74.4554 -89.3521 88.4342 -99.9499 103.05C-140.652 158.863 -169.106 223.754 -188.064 290.752C-191.306 302.198 -194.337 313.833 -197.333 325.543C-208.019 367.339 -218.222 410.096 -235.715 448.634C-246.173 471.675 -259.133 493.366 -276.778 511.909C-287.802 523.494 -300.158 533.225 -313.505 541.602C-327.765 550.553 -342.828 558.042 -358.445 564.998C-411.695 588.675 -471.085 607.138 -515.906 645.107" stroke="#1A3447" stroke-opacity="0.2" stroke-width="0.552088" stroke-miterlimit="10"/>
<path d="M1181.34 -635.594C1190.26 -553.779 1164.53 -468.302 1108.99 -406.283C1073.55 -366.675 1028.77 -345.166 993.768 -305.56C955.105 -261.849 911.021 -223.054 863.094 -189.769C830.214 -166.93 795.49 -146.676 759.42 -129.196C688.411 -94.7862 612.178 -71.1197 534.258 -60.3194C488.706 -54.0076 442.841 -51.8968 397.066 -52.4337C363.437 -52.8581 329.811 -54.6845 296.324 -57.3521C248.047 -61.2231 199.404 -66.8326 151.042 -61.0599C134.326 -59.0567 117.846 -55.6785 101.702 -51.0837C31.9858 -31.2489 -31.7693 10.8182 -80.2376 64.6586C-92.6455 78.416 -104.113 92.8974 -114.684 107.997C-155.16 165.665 -182.993 232.283 -201.209 300.753C-204.324 312.448 -207.225 324.329 -210.094 336.279C-220.336 378.932 -230.165 422.46 -247.659 461.526C-258.121 484.888 -271.269 506.735 -289.101 525.579C-300.244 537.357 -312.669 547.362 -326.058 556.053C-340.388 565.428 -355.653 573.334 -371.435 580.668C-425.226 605.63 -485.066 624.082 -530.827 662.122" stroke="#1A3447" stroke-opacity="0.2" stroke-width="0.552088" stroke-miterlimit="10"/>
<path d="M1178.79 -632.514C1189.71 -550.792 1165 -465.193 1109.86 -403.509C1073.97 -363.36 1028.47 -341.883 993.196 -301.537C954.326 -257.078 909.987 -217.433 861.692 -183.46C763.32 -114.259 648.245 -68.4642 528.796 -53.3777C448.447 -43.2301 366.95 -46.3769 286.357 -54.3542C237.116 -59.228 187.542 -65.8989 138.342 -60.6461C47.8913 -50.9884 -35.3624 -0.536216 -95.0455 68.111C-154.729 136.758 -192.296 222.48 -214.341 310.735C-234.35 390.822 -244.841 479.114 -301.408 539.235C-366.103 607.991 -472.587 619.422 -545.729 679.112" stroke="#1A3447" stroke-opacity="0.2" stroke-width="0.552088" stroke-miterlimit="10"/>
<path d="M1220.12 -103.278C1179.54 -194.321 1106.06 -270.274 1016.41 -313.828C990.899 -326.219 963.053 -336.23 934.796 -333.859C853.149 -327.004 803.478 -237.653 758.834 -179.401C704.956 -109.108 652.712 -37.3705 593.208 28.3681C559.801 65.2751 517.901 102.795 468.177 100.428C417.825 98.0295 379.933 56.156 343.593 21.2196C301.249 -19.491 252.339 -54.9943 196.311 -72.6319C140.282 -90.2696 76.3293 -88.3334 25.8906 -58.226C-13.6068 -34.6481 -41.8486 3.77875 -65.6979 43.1145C-128.358 146.472 -168.191 263.583 -181.546 383.714" stroke="#1A3447" stroke-opacity="0.2" stroke-width="0.552088" stroke-miterlimit="10"/>
<path d="M1220.6 -108.236C1184.74 -188.702 1120.71 -254.219 1039.99 -298.613C1032.49 -302.737 1024.91 -306.694 1017.19 -310.389C991.835 -322.519 964.262 -332.366 936.317 -330.22C855.483 -324.043 805.639 -238.097 760.564 -181.006C720.602 -130.39 681.692 -78.4478 639.716 -28.3414C625.17 -10.9221 610.313 6.24195 594.994 23.0293C561.763 59.441 520.348 96.4919 471.368 94.957C421.772 93.4008 384.243 53.6525 348.202 20.5982C306.202 -17.914 257.831 -51.4161 202.509 -67.7081C183.247 -73.3802 163.048 -76.7646 142.783 -77.5128C104.861 -78.922 66.7031 -71.1113 34.0666 -51.8034C-5.13594 -28.611 -33.4932 8.83549 -57.6113 46.9975C-106.454 124.226 -142.191 208.704 -163.212 296.806C-169.487 323.095 -174.45 349.701 -178.048 376.533" stroke="#1A3447" stroke-opacity="0.2" stroke-width="0.552088" stroke-miterlimit="10"/>
<path d="M1221.08 -113.189C1186.42 -190.972 1122.87 -251.46 1040.62 -295.444C1033.15 -299.435 1025.63 -303.327 1017.98 -306.94C992.768 -318.805 965.472 -328.493 937.834 -326.573C857.808 -321.078 807.802 -238.537 762.294 -182.601C722.317 -133.465 683.518 -82.4775 641.324 -32.924C626.818 -15.7777 612.017 1.14021 596.78 17.7C563.726 53.62 522.792 90.2003 474.558 89.4952C425.719 88.7779 388.552 51.1549 352.814 19.9845C311.162 -16.3308 263.323 -47.8284 208.712 -62.7729C189.696 -67.9738 169.763 -70.9744 149.763 -71.4371C112.343 -72.324 74.641 -64.3586 42.2514 -45.371C3.34533 -22.5606 -25.1255 13.9004 -49.5176 50.8866C-98.9463 125.737 -135.695 206.935 -158.228 292.119C-164.953 317.538 -170.413 343.303 -174.542 369.359" stroke="#1A3447" stroke-opacity="0.2" stroke-width="0.552088" stroke-miterlimit="10"/>
<path d="M1221.56 -118.147C1188.09 -193.246 1125.05 -248.713 1041.26 -292.28C1033.82 -296.147 1026.37 -299.969 1018.77 -303.498C993.709 -315.103 966.685 -324.621 939.361 -322.932C860.148 -318.115 809.989 -238.983 764.03 -184.203C724.049 -136.548 685.24 -86.6145 642.944 -37.5113C628.437 -20.6676 613.732 -3.96625 598.573 12.3676C565.695 47.7924 525.243 83.9056 477.76 84.0288C429.676 84.1505 392.873 48.6562 357.434 19.3679C316.126 -14.749 268.826 -44.2455 214.925 -57.8461C196.151 -62.5742 176.488 -65.1923 156.75 -65.3733C119.83 -65.7363 82.5901 -57.6194 50.4418 -38.9453C11.8322 -16.5168 -16.7521 18.9587 -41.4182 54.7691C-91.4347 127.247 -129.193 205.16 -153.236 287.429C-160.411 311.977 -166.364 336.9 -171.025 362.183" stroke="#1A3447" stroke-opacity="0.2" stroke-width="0.552088" stroke-miterlimit="10"/>
<path d="M1222.04 -123.1C1189.77 -195.517 1127.24 -245.978 1041.88 -289.11C1034.48 -292.849 1027.09 -296.604 1019.55 -300.048C994.639 -311.387 967.89 -320.746 940.877 -319.286C862.478 -315.148 812.174 -239.422 765.756 -185.797C725.783 -139.619 687.028 -90.6743 644.549 -42.0929C630.07 -25.5297 615.436 -9.06863 600.355 7.03921C567.654 41.9724 527.688 77.6171 480.947 78.5682C433.619 79.5323 397.179 46.1633 362.039 18.7569C321.075 -13.1615 274.313 -40.6603 221.119 -52.9117C202.589 -57.1722 183.198 -59.4046 163.72 -59.3021C127.303 -59.1392 90.5227 -50.8691 58.6125 -32.5157C20.2941 -10.4711 -8.40206 24.0225 -33.3387 58.6555C-83.941 128.756 -122.711 203.388 -148.269 282.741C-155.898 306.42 -162.344 330.501 -167.537 355.007" stroke="#1A3447" stroke-opacity="0.2" stroke-width="0.552088" stroke-miterlimit="10"/>
<path d="M1222.52 -128.055C1191.44 -197.791 1129.45 -243.255 1042.51 -285.944C1035.15 -289.56 1027.81 -293.24 1020.34 -296.604C995.576 -307.683 969.098 -316.876 942.397 -315.64C864.811 -312.181 814.377 -239.862 767.486 -187.391C727.533 -142.683 688.828 -94.7343 646.163 -46.673C631.711 -30.3903 617.145 -14.1678 602.147 1.7124C569.621 36.1503 530.138 71.328 484.143 73.109C437.571 74.912 401.498 43.6702 366.654 18.1475C326.035 -11.5776 279.81 -37.0701 227.324 -47.9724C209.04 -51.7617 189.915 -53.6101 170.7 -53.2258C134.786 -52.5406 98.4608 -44.1157 66.7991 -26.0791C28.7772 -4.41646 -0.0307821 29.0951 -25.2414 62.5524C-76.4279 130.279 -116.211 201.627 -143.28 278.065C-151.358 300.874 -158.301 324.114 -164.027 347.844" stroke="#1A3447" stroke-opacity="0.2" stroke-width="0.552088" stroke-miterlimit="10"/>
<path d="M1223 -133.013C1193.12 -200.067 1131.67 -240.555 1043.15 -282.785C1035.82 -286.279 1028.54 -289.887 1021.13 -293.165C996.513 -303.98 970.308 -313.012 943.917 -312.004C867.141 -309.223 816.591 -240.313 769.215 -188.999C729.295 -145.759 690.623 -98.8062 647.77 -51.2686C633.346 -35.2664 618.848 -19.2824 603.929 -3.63336C571.581 30.3129 532.582 65.0183 487.331 67.6308C441.514 70.2728 405.806 41.1597 371.259 17.5191C330.985 -10.0076 285.299 -33.4989 233.519 -43.0556C215.481 -46.3737 196.626 -47.8398 177.672 -47.1686C142.257 -45.9594 106.394 -37.383 74.9721 -19.6635C37.2467 1.61715 8.32157 34.1449 -17.1595 66.4247C-68.9318 131.774 -109.727 199.841 -138.307 273.362C-146.839 295.301 -154.275 317.7 -160.53 340.651" stroke="#1A3447" stroke-opacity="0.2" stroke-width="0.552088" stroke-miterlimit="10"/>
<path d="M1223.48 -137.966C1194.79 -202.336 1133.91 -237.86 1043.78 -279.614C1036.48 -282.991 1029.27 -286.521 1021.91 -289.716C997.445 -300.269 971.514 -309.137 945.435 -308.354C869.471 -306.255 818.815 -240.742 770.947 -190.59C731.07 -148.814 692.429 -102.861 649.382 -55.8439C634.987 -40.1186 620.554 -24.3805 605.719 -8.95544C573.546 24.4956 535.029 58.7341 490.525 62.1763C445.465 65.6608 410.117 38.6694 375.875 16.9127C335.949 -8.41717 290.798 -29.9056 239.73 -38.1147C221.935 -40.9653 203.348 -42.0439 184.657 -41.0909C149.744 -39.3594 114.342 -30.6262 83.16 -13.2238C45.7295 7.6713 16.6925 39.2172 -9.06614 70.3229C-61.4227 133.298 -103.231 198.081 -133.325 268.689C-142.307 289.758 -150.24 311.316 -157.027 333.49" stroke="#1A3447" stroke-opacity="0.2" stroke-width="0.552088" stroke-miterlimit="10"/>
<path d="M1223.97 -142.924C1196.47 -204.613 1136.16 -235.191 1044.41 -276.45C1037.16 -279.712 1030 -283.161 1022.7 -286.273C998.384 -296.562 972.727 -305.266 946.958 -304.712C871.808 -303.291 821.061 -241.181 772.679 -192.191C732.862 -151.873 694.233 -106.924 650.996 -60.4338C636.632 -44.9907 622.263 -29.4895 607.506 -14.2904C575.511 18.6689 537.478 52.4352 493.719 56.7125C449.415 61.0359 414.431 36.1733 380.487 16.2986C340.905 -6.8328 296.29 -26.3184 245.931 -33.1836C228.383 -35.563 210.065 -36.2593 191.633 -35.0228C157.225 -32.7654 122.281 -23.8827 91.3395 -6.79385C54.2055 13.7193 25.0549 44.2797 -0.976096 74.2132C-53.9185 134.811 -96.7389 196.313 -128.344 264.003C-137.78 284.203 -146.208 304.915 -153.523 326.32" stroke="#1A3447" stroke-opacity="0.2" stroke-width="0.552088" stroke-miterlimit="10"/>
<path d="M1224.44 -147.88C1198.15 -206.887 1138.42 -232.537 1045.04 -273.285C1037.83 -276.431 1030.72 -279.8 1023.49 -282.829C999.318 -292.857 973.934 -301.396 948.48 -301.072C874.139 -300.329 823.313 -241.615 774.41 -193.791C734.665 -154.924 696.043 -110.981 652.608 -65.0182C638.275 -49.8484 623.971 -34.5931 609.296 -19.6216C577.476 12.8426 539.926 46.1419 496.913 51.2491C453.364 56.4114 418.745 33.6777 385.1 15.685C345.861 -5.24799 301.786 -22.7325 252.134 -28.2485C234.832 -30.1567 216.781 -30.4691 198.611 -28.9508C164.702 -26.1695 130.218 -17.13 99.5226 -0.36509C62.6834 19.7625 33.4174 49.3426 7.11596 78.0987C-46.4106 136.323 -90.2445 194.541 -123.36 259.316C-133.245 278.646 -142.17 298.517 -150.014 319.144" stroke="#1A3447" stroke-opacity="0.2" stroke-width="0.552088" stroke-miterlimit="10"/>
<path d="M1224.93 -152.834C1199.83 -209.159 1140.7 -229.896 1045.67 -270.119C1038.5 -273.155 1031.45 -276.441 1024.27 -279.387C1000.25 -289.151 975.141 -297.529 949.995 -297.429C876.468 -297.364 825.577 -242.044 776.134 -195.392C736.472 -157.967 697.849 -115.039 654.211 -69.606C639.909 -54.7147 625.669 -39.7 611.075 -24.956C579.432 7.01643 542.366 39.8436 500.097 45.7822C457.304 51.7835 423.048 31.1785 389.702 15.0678C350.811 -3.66831 307.271 -19.1499 258.326 -23.3203C241.267 -24.761 223.483 -24.6894 205.578 -22.8858C172.171 -19.5822 138.147 -10.3896 107.692 6.06185C71.1458 25.8091 41.7699 54.4021 15.1944 81.9824C-38.918 137.829 -83.7654 192.763 -118.394 254.625C-128.73 273.084 -138.151 292.115 -146.528 311.965" stroke="#1A3447" stroke-opacity="0.2" stroke-width="0.552088" stroke-miterlimit="10"/>
<path d="M1225.41 -157.791C1201.5 -211.434 1142.98 -227.281 1046.3 -266.954C1039.17 -269.879 1032.18 -273.078 1025.06 -275.944C1001.19 -285.446 976.348 -293.66 951.516 -293.789C878.803 -294.404 827.86 -242.467 777.866 -196.992C738.303 -161.005 699.662 -119.098 655.826 -74.1924C641.559 -59.5761 627.38 -44.8055 612.868 -30.2891C581.401 1.1881 544.819 33.5518 503.299 40.315C461.262 47.1589 427.371 28.6739 394.323 14.454C355.775 -2.08721 312.775 -15.5641 264.54 -18.3906C247.727 -19.36 230.212 -18.9061 212.568 -16.8155C179.664 -12.9895 146.099 -3.64382 115.884 12.4905C79.634 31.8558 50.141 59.4649 23.2967 85.8714C-31.3999 139.344 -77.2607 190.994 -113.401 249.938C-124.19 267.528 -134.105 285.717 -143.01 304.789" stroke="#1A3447" stroke-opacity="0.2" stroke-width="0.552088" stroke-miterlimit="10"/>
<path d="M1225.89 -162.743C1203.17 -213.702 1145.28 -224.683 1046.93 -263.785C1039.85 -266.601 1032.91 -269.729 1025.85 -272.495C1002.14 -281.78 977.559 -289.783 953.038 -290.141C881.136 -291.438 830.155 -242.875 779.601 -198.585C740.148 -164.022 701.483 -123.141 657.44 -78.7727C643.207 -64.4314 629.091 -49.9101 614.654 -35.6181C583.364 -4.63254 547.266 27.259 506.49 34.8537C465.209 42.5365 431.681 26.1803 398.936 13.8408C360.732 -0.501971 318.271 -11.9776 270.743 -13.455C254.176 -13.9533 236.928 -13.1154 219.547 -10.7431C187.143 -6.38958 154.037 3.10936 124.069 18.9233C88.1137 37.9031 58.5089 64.5302 31.3906 89.7609C-23.8918 140.856 -70.7645 189.225 -108.415 245.255C-119.654 261.975 -130.065 279.323 -139.502 297.622" stroke="#1A3447" stroke-opacity="0.2" stroke-width="0.552088" stroke-miterlimit="10"/>
<path d="M1226.37 -167.701C1204.85 -215.979 1147.6 -222.114 1047.56 -260.62C1040.52 -263.331 1033.64 -266.367 1026.63 -269.052C1003.08 -278.076 978.767 -285.913 954.556 -286.5C883.464 -288.474 832.464 -243.279 781.328 -200.188C741.999 -167.044 703.295 -127.195 659.051 -83.361C644.856 -69.2963 630.797 -55.0175 616.442 -40.9531C585.327 -10.4627 549.712 20.9618 509.682 29.3864C469.157 37.9081 435.993 23.6807 403.547 13.2232C365.69 1.07724 323.765 -8.39561 276.943 -8.52736C260.617 -8.55641 243.644 -7.33435 226.518 -4.67693C194.617 0.198881 161.97 9.85098 132.241 25.3478C96.583 43.9456 66.8646 69.5873 39.4722 93.6422C-16.3944 142.363 -64.2804 187.448 -103.446 240.562C-115.139 256.413 -126.043 272.919 -136.012 290.441" stroke="#1A3447" stroke-opacity="0.2" stroke-width="0.552088" stroke-miterlimit="10"/>
<path d="M1226.85 -172.658C1206.53 -218.253 1149.91 -219.566 1048.19 -257.455C1041.2 -260.06 1034.36 -263.007 1027.42 -265.607C1004.01 -274.371 979.974 -282.044 956.076 -282.855C885.797 -285.508 834.787 -243.672 783.058 -201.783C743.864 -170.045 705.119 -131.241 660.66 -87.944C646.499 -74.1543 632.501 -60.1197 618.228 -46.2828C587.29 -16.2842 552.159 14.6682 512.873 23.9243C473.104 33.2885 440.303 21.1863 408.156 12.6109C370.643 2.66337 329.253 -4.80666 283.143 -3.59089C267.062 -3.14876 250.355 -1.5428 233.493 1.39641C202.094 6.79453 169.906 16.5998 140.419 31.7831C105.057 49.999 75.2214 74.6568 47.5567 97.5395C-8.89572 143.883 -57.7936 185.687 -98.4693 235.886C-110.612 250.867 -122.013 266.533 -132.511 283.276" stroke="#1A3447" stroke-opacity="0.2" stroke-width="0.552088" stroke-miterlimit="10"/>
<path d="M1227.33 -177.612C1208.21 -220.525 1152.25 -217.041 1048.83 -254.291C1041.88 -256.793 1035.09 -259.65 1028.21 -262.165C1004.95 -270.669 981.185 -278.176 957.597 -279.215C888.132 -282.547 837.131 -244.057 784.788 -203.387C745.742 -173.048 706.941 -135.29 662.27 -92.5318C648.145 -79.0135 634.207 -65.2267 620.016 -51.6175C589.254 -22.114 554.605 8.37148 516.065 18.4574C477.052 28.6605 444.614 18.6834 412.766 11.9936C375.601 4.2429 334.747 -1.22428 289.346 1.33545C273.511 2.24874 257.074 4.23701 240.473 7.46322C209.573 13.3853 177.846 23.3473 148.605 38.2103C113.538 56.0406 83.5909 79.7164 55.6522 101.423C-1.38442 145.393 -51.2957 183.913 -93.4831 231.194C-106.081 245.302 -117.975 260.126 -129.004 276.096" stroke="#1A3447" stroke-opacity="0.2" stroke-width="0.552088" stroke-miterlimit="10"/>
<path d="M1227.81 -182.568C1209.88 -222.798 1154.59 -214.545 1049.46 -251.124C1042.55 -253.526 1035.81 -256.288 1028.99 -258.718C1005.88 -266.957 982.386 -274.255 959.114 -275.569C890.452 -279.441 839.481 -244.418 786.515 -204.981C747.627 -176.023 708.764 -139.327 663.879 -97.1144C649.793 -83.8692 635.911 -70.3283 621.801 -56.9467C591.217 -27.9349 557.052 2.07837 519.256 12.9957C480.995 24.0394 448.924 16.1895 417.379 11.38C380.557 5.82783 340.243 2.36184 295.55 6.27072C279.959 7.65161 263.79 10.0274 247.451 13.5354C217.056 19.9833 185.785 30.0949 156.785 44.6407C122.011 62.0907 91.9499 84.7811 63.7408 105.311C6.11835 146.903 -44.8048 182.142 -88.5058 226.511C-101.554 239.748 -113.945 253.731 -125.504 268.929" stroke="#1A3447" stroke-opacity="0.2" stroke-width="0.552088" stroke-miterlimit="10"/>
<path d="M1228.29 -187.522C1211.56 -225.07 1156.94 -212.071 1050.09 -247.956C1043.23 -250.258 1036.54 -252.922 1029.78 -255.273C1006.82 -263.251 983.603 -270.385 960.643 -271.923C892.792 -276.478 841.855 -244.768 788.257 -206.577C749.542 -178.991 710.606 -143.363 665.502 -101.695C651.457 -88.7189 637.63 -75.4277 623.598 -62.272C593.189 -33.7555 559.507 -4.20928 522.459 7.5415C484.955 19.4277 453.25 13.7015 422 10.7756C385.523 7.4219 345.747 5.95709 301.76 11.2116C286.415 13.0636 270.512 15.8234 254.436 19.6131C224.544 26.5834 193.734 36.8517 164.973 51.0805C130.494 68.1449 100.323 89.8569 71.8396 109.211C13.633 148.429 -38.3072 180.386 -83.5162 221.834C-97.0176 234.203 -109.898 247.342 -121.99 261.763" stroke="#1A3447" stroke-opacity="0.2" stroke-width="0.552088" stroke-miterlimit="10"/>
<path d="M1228.77 -192.478C1213.23 -227.348 1159.3 -209.626 1050.72 -244.789C1043.91 -246.992 1037.27 -249.561 1030.57 -251.826C1007.75 -259.539 984.803 -266.512 962.154 -268.279C895.113 -273.511 844.228 -245.097 789.977 -208.176C751.445 -181.948 712.426 -147.398 667.104 -106.283C653.1 -93.5764 639.326 -80.5385 625.377 -67.6068C595.145 -39.5819 561.949 -10.5042 525.643 2.07445C488.894 14.7996 457.553 11.2021 426.602 10.1583C390.471 8.99777 351.23 9.53577 307.952 16.1394C292.852 18.4626 277.219 21.6047 261.403 25.6779C232.009 33.1721 201.658 43.5935 173.141 57.5036C138.958 74.186 108.673 94.9126 79.9162 113.091C21.1237 149.932 -31.8298 178.604 -78.5473 217.142C-92.4985 228.64 -105.876 240.938 -118.5 254.583" stroke="#1A3447" stroke-opacity="0.2" stroke-width="0.552088" stroke-miterlimit="10"/>
<path d="M1229.25 -197.436C1214.91 -229.624 1161.66 -207.215 1051.35 -241.629C1044.59 -243.738 1037.99 -246.203 1031.35 -248.388C1008.69 -255.84 986.016 -262.649 963.679 -264.641C897.45 -270.555 846.628 -245.417 791.712 -209.778C753.369 -184.895 714.269 -151.431 668.72 -110.869C654.757 -98.4322 641.037 -85.6439 627.169 -72.9435C597.112 -45.4138 564.398 -16.803 528.839 -3.3945C492.846 10.1696 461.867 8.69728 431.216 9.53904C395.429 10.577 356.728 13.1162 314.16 21.0674C299.305 23.8582 283.94 27.3877 268.388 31.7463C239.497 39.7628 209.605 50.3374 181.333 63.9323C147.446 80.2328 117.045 99.9755 88.017 116.976C28.6403 151.443 -25.3266 176.831 -73.5593 212.453C-87.9606 223.08 -101.835 234.538 -114.991 247.406" stroke="#1A3447" stroke-opacity="0.2" stroke-width="0.552088" stroke-miterlimit="10"/>
<path d="M1229.73 -202.389C1216.58 -231.893 1164.04 -204.83 1051.98 -238.461C1045.27 -240.474 1038.72 -242.839 1032.14 -244.939C1009.62 -252.126 987.222 -258.775 965.199 -260.996C899.778 -267.592 849.038 -245.706 793.441 -211.377C755.297 -187.826 716.105 -155.461 670.326 -115.455C656.405 -103.288 642.743 -90.7509 628.953 -78.2764C599.073 -51.2384 566.841 -23.0983 532.032 -8.86155C496.795 5.54501 466.179 6.19802 435.827 8.92179C400.384 12.1582 362.218 16.7002 320.36 25.9953C305.751 29.2573 290.656 33.1692 275.363 37.8111C246.976 46.3536 217.543 57.0813 189.509 70.3555C155.917 86.2704 125.404 105.031 96.1038 120.86C36.1413 152.949 -18.8375 175.057 -68.5818 207.76C-83.4366 217.519 -97.8041 228.135 -111.489 240.224" stroke="#1A3447" stroke-opacity="0.2" stroke-width="0.552088" stroke-miterlimit="10"/>
<path d="M1230.21 -207.345C1218.25 -234.168 1166.41 -202.477 1052.61 -235.294C1045.95 -237.218 1039.44 -239.479 1032.93 -241.494C1010.56 -248.416 988.437 -254.947 966.715 -257.35C902.121 -264.756 851.455 -245.969 795.167 -212.97C757.231 -190.733 717.944 -159.484 671.937 -120.035C658.058 -108.133 644.448 -95.8495 630.74 -83.6026C601.036 -57.0598 569.29 -29.3882 535.224 -14.32C500.743 0.925467 470.491 3.70723 440.441 8.31138C405.346 13.7446 367.715 20.2895 326.565 30.9338C312.201 34.6669 297.373 38.9627 282.343 43.8865C254.455 52.9528 225.485 63.8321 197.692 76.7928C164.393 92.3274 133.766 110.103 104.192 124.755C43.6452 154.471 -12.347 173.294 -63.6014 203.083C-78.9062 211.971 -93.772 221.743 -107.986 233.063" stroke="#1A3447" stroke-opacity="0.2" stroke-width="0.552088" stroke-miterlimit="10"/>
<path d="M1230.69 -212.299C1219.93 -236.44 1168.8 -200.154 1053.25 -232.126C1046.63 -233.955 1040.18 -236.113 1033.72 -238.047C1011.49 -244.703 989.646 -251.074 968.238 -253.707C904.456 -261.795 853.891 -246.209 796.904 -214.569C759.184 -193.627 719.797 -163.504 673.553 -124.62C659.716 -112.985 646.16 -100.954 632.53 -88.9334C603.003 -62.8822 571.737 -35.6813 538.419 -19.7832C504.693 -3.69879 474.805 1.21173 445.054 7.6979C410.302 15.3296 373.211 23.8757 332.767 35.8655C318.643 40.0679 304.088 44.7443 289.32 49.9551C261.934 59.5438 233.42 70.5779 205.875 83.2218C172.873 98.3744 142.132 115.164 112.284 128.641C51.1515 155.979 -5.85249 171.522 -58.6221 198.395C-74.3804 206.414 -89.7394 215.344 -104.482 225.885" stroke="#1A3447" stroke-opacity="0.2" stroke-width="0.552088" stroke-miterlimit="10"/>
<path d="M1231.17 -217.256C1221.61 -238.714 1171.19 -197.869 1053.88 -228.964C1047.31 -230.704 1040.9 -232.756 1034.5 -234.607C1012.43 -240.998 990.856 -247.209 969.757 -250.065C906.788 -258.832 856.331 -246.422 798.631 -216.171C761.129 -196.51 721.639 -167.528 675.16 -129.207C661.366 -117.837 647.861 -106.063 634.314 -94.2664C604.963 -68.7105 574.183 -41.9781 541.608 -25.2486C508.639 -8.32167 479.115 -1.29105 449.661 7.08234C415.253 16.9125 378.701 27.4597 338.969 40.7971C325.091 45.4707 310.802 50.531 296.298 56.0271C269.411 66.1398 241.361 77.329 214.055 89.6522C181.347 104.419 150.495 120.227 120.373 132.528C58.6559 157.492 0.638497 169.751 -53.6411 193.709C-69.8494 200.858 -85.7052 208.947 -100.981 218.712" stroke="#1A3447" stroke-opacity="0.2" stroke-width="0.552088" stroke-miterlimit="10"/>
<path d="M1231.65 -222.214C1223.29 -240.99 1173.59 -195.62 1054.51 -225.799C1047.99 -227.452 1041.62 -229.381 1035.29 -231.162C1013.35 -237.247 992.06 -243.338 971.277 -246.421C909.118 -255.865 858.786 -246.602 800.361 -217.766C763.085 -199.37 723.49 -171.534 676.772 -133.791C663.026 -122.685 649.569 -111.167 636.104 -99.5974C606.93 -74.5332 576.63 -48.2714 544.802 -30.712C512.589 -12.9461 483.429 -3.78675 454.273 6.46866C420.212 18.4921 384.197 31.0457 345.171 45.7287C331.539 50.8734 317.516 56.3177 303.275 62.0956C276.892 72.7341 249.3 84.0729 222.234 96.0826C189.823 110.468 158.854 125.292 128.463 136.419C66.1603 159.006 7.13109 167.984 -48.6602 189.024C-65.3221 195.303 -81.671 202.551 -97.4788 211.539" stroke="#1A3447" stroke-opacity="0.2" stroke-width="0.552088" stroke-miterlimit="10"/>
<path d="M1232.13 -227.166C1224.96 -243.259 1175.98 -193.402 1055.14 -222.63C1048.67 -224.194 1042.35 -226.016 1036.07 -227.719C1014.28 -233.54 993.273 -239.466 972.798 -242.781C911.453 -252.904 861.247 -246.751 802.092 -219.37C765.041 -202.219 725.341 -175.549 678.383 -138.379C664.681 -127.536 651.274 -116.274 637.89 -104.936C608.891 -80.3669 579.079 -54.5701 547.993 -36.1828C516.535 -17.578 487.739 -6.2899 458.882 5.84753C425.165 20.0694 389.689 34.6243 351.369 50.6528C337.981 56.2651 324.23 62.0953 310.248 68.1566C284.368 79.3174 257.232 90.8146 230.409 102.502C198.294 116.505 167.211 130.344 136.546 140.295C73.6596 160.508 13.6169 166.202 -43.688 184.329C-60.7998 189.738 -77.6455 196.145 -93.9806 204.358" stroke="#1A3447" stroke-opacity="0.2" stroke-width="0.552088" stroke-miterlimit="10"/>
<path d="M1232.61 -232.124C1226.64 -245.536 1178.39 -191.223 1055.77 -219.467C1049.35 -220.944 1043.08 -222.657 1036.86 -224.275C1015.22 -229.835 994.48 -235.597 974.318 -239.137C913.786 -249.939 863.711 -246.862 803.822 -220.966C766.996 -205.042 727.195 -179.548 679.995 -142.964C666.339 -132.379 652.982 -121.378 639.676 -110.266C610.854 -86.1882 581.523 -60.862 551.185 -41.6413C520.483 -22.1976 492.051 -8.78061 463.496 5.23719C430.127 21.6559 395.186 38.2135 357.574 55.5912C344.431 61.6747 330.947 67.8889 317.228 74.232C291.846 85.9168 265.174 97.5654 238.595 108.938C206.775 122.555 175.577 135.413 144.642 144.188C81.1689 162.023 20.1129 164.433 -38.7021 179.645C-56.2639 184.184 -73.6063 189.75 -90.4738 197.187" stroke="#1A3447" stroke-opacity="0.2" stroke-width="0.552088" stroke-miterlimit="10"/>
<path d="M1233.1 -237.077C1228.31 -247.806 1180.79 -189.081 1056.4 -216.296C1050.03 -217.689 1043.8 -219.291 1037.65 -220.826C1016.16 -226.122 995.69 -231.723 975.838 -235.492C916.118 -246.976 866.18 -246.936 805.555 -222.562C768.955 -207.847 729.058 -183.546 681.609 -147.544C668.003 -137.22 654.692 -126.477 641.467 -115.593C612.821 -92.0106 583.976 -67.1531 554.382 -47.1009C524.436 -26.8147 496.365 -11.276 468.111 4.62737C435.085 23.2445 400.68 41.805 363.777 60.5266C350.881 67.0813 337.666 73.6777 324.202 80.3059C299.324 92.513 273.11 104.315 246.771 115.37C215.245 128.607 183.936 140.478 152.728 148.08C88.6716 163.542 26.6021 162.667 -33.7245 174.962C-51.7398 178.631 -69.5755 183.356 -86.9753 190.016" stroke="#1A3447" stroke-opacity="0.2" stroke-width="0.552088" stroke-miterlimit="10"/>
<path d="M1233.58 -242.035C1229.99 -250.082 1183.19 -186.982 1057.03 -213.136C1050.71 -214.446 1044.53 -215.934 1038.43 -217.386C1017.09 -222.42 996.896 -227.857 977.36 -231.852C918.449 -244.014 868.651 -246.977 807.286 -224.166C770.91 -210.643 730.921 -187.545 683.218 -152.136C669.658 -142.07 656.398 -131.593 643.253 -120.931C614.784 -97.8405 586.42 -73.4535 557.576 -52.5731C528.386 -31.4479 500.679 -13.7806 472.723 4.00484C440.042 24.8205 406.176 45.3821 369.984 65.4513C357.332 72.4736 344.385 79.4575 331.186 86.371C306.812 99.104 281.054 111.061 254.958 121.797C223.726 134.649 192.306 145.538 160.82 151.966C96.1794 165.053 33.0965 160.894 -28.7437 170.276C-47.209 173.075 -65.543 176.956 -83.47 182.841" stroke="#1A3447" stroke-opacity="0.2" stroke-width="0.552088" stroke-miterlimit="10"/>
<path d="M1234.06 -246.991C1231.66 -252.355 1185.6 -184.921 1057.66 -209.971C1051.39 -211.2 1045.26 -212.574 1039.22 -213.943C1018.03 -218.713 998.109 -223.986 978.878 -228.211C920.781 -241.051 871.119 -246.978 809.014 -225.765C772.858 -213.415 732.781 -191.53 684.83 -156.72C671.321 -146.912 658.106 -136.697 645.043 -126.262C616.749 -103.667 588.871 -79.7486 560.77 -58.0368C532.335 -36.0727 504.993 -16.2764 477.336 3.39099C445.002 26.4034 411.671 48.9679 376.186 70.3827C363.779 77.8761 351.103 85.2424 338.163 92.4394C314.287 105.696 288.992 117.804 263.141 128.226C232.206 140.695 200.668 150.601 168.912 155.851C103.686 166.561 39.5908 159.122 -23.761 165.585C-42.6799 167.516 -61.5071 170.554 -79.9648 175.666" stroke="#1A3447" stroke-opacity="0.2" stroke-width="0.552088" stroke-miterlimit="10"/>
<path d="M1234.53 -251.944C1233.34 -254.626 1188 -182.901 1058.29 -206.8C1052.07 -207.947 1045.98 -209.207 1040 -210.493C1018.96 -215.003 999.311 -220.109 980.395 -224.561C923.112 -238.08 873.58 -246.927 810.74 -227.359C774.796 -216.164 734.685 -195.448 686.435 -161.302C672.985 -151.732 659.806 -141.797 646.825 -131.59C618.709 -109.487 591.311 -86.0387 563.957 -63.497C536.279 -40.6904 509.303 -18.7706 481.941 2.78045C449.951 27.9914 417.16 52.557 382.382 75.3209C370.221 83.2855 357.811 91.0357 345.134 98.5144C321.761 112.294 296.924 124.555 271.313 134.659C240.674 146.747 209.025 155.67 176.995 159.745C111.184 168.081 46.0762 157.357 -18.7857 160.907C-38.1545 161.966 -57.4785 164.164 -76.4651 168.498" stroke="#1A3447" stroke-opacity="0.2" stroke-width="0.552088" stroke-miterlimit="10"/>
<path d="M1235.02 -256.902C1235.02 -256.902 1190.41 -180.925 1058.93 -203.636C927.44 -226.348 859.158 -284.504 688.051 -165.887C569.812 -83.9184 474.195 28.234 352.118 104.58C301.891 135.991 244.4 158.305 185.091 163.629C118.694 169.587 52.5744 155.583 -13.8027 156.216C-33.6251 156.407 -53.4387 157.761 -72.9612 161.32" stroke="#1A3447" stroke-opacity="0.2" stroke-width="0.552088" stroke-miterlimit="10"/>
</svg>
