<svg viewBox="0 0 50 51" fill="none" xmlns="http://www.w3.org/2000/svg">
<path d="M49.736 25.7423C46.9911 22.8791 43.528 21.0548 39.7187 20.4668C39.2304 20.3914 38.7791 20.7492 38.7081 21.2602C38.6371 21.7722 38.9749 22.2501 39.4603 22.3255C42.5771 22.8064 45.4526 24.2153 47.8058 26.4094C44.9104 29.104 41.1947 30.6232 37.2888 30.6977C33.5788 30.7714 29.9936 29.5289 27.0841 27.1941C35.9462 25.9923 42.8666 17.9946 42.9149 8.3787C42.9177 8.1299 42.8212 7.88589 42.6566 7.71044C42.4778 7.52062 42.2365 7.41701 42.0066 7.43467C38.2312 7.45982 34.6262 8.70474 31.5804 11.0356C31.183 11.3404 31.095 11.9287 31.3846 12.3476C31.5236 12.5503 31.7309 12.6835 31.9636 12.723C32.1992 12.7626 32.4348 12.7033 32.6278 12.556C35.1173 10.6506 38.0382 9.54517 41.1039 9.34517C40.8513 13.5997 39.1083 17.5761 36.1619 20.5869C33.6128 23.1932 30.3996 24.8282 26.9478 25.3156C32.4121 17.8662 31.9778 7.08557 25.6023 0.287018C25.4377 0.113663 25.2078 0.0139731 24.9693 0.0139731C24.7281 0.0139731 24.4981 0.11367 24.3363 0.286725C21.6198 3.18106 19.8911 6.83407 19.3348 10.8515C19.2638 11.3634 19.6016 11.8413 20.087 11.9171C20.5724 11.9892 21.0266 11.6329 21.0947 11.1233C21.5517 7.83738 22.8887 4.80412 24.9665 2.32207C27.6206 5.49754 29.0371 9.58888 28.9604 13.8961C28.8951 17.6237 27.7143 21.1659 25.6052 24.0785C24.4754 14.8078 16.9844 7.53677 7.98354 7.43887C7.74084 7.43707 7.51432 7.53259 7.34372 7.71073C7.17624 7.88558 7.08029 8.129 7.08029 8.3781V10.1209C7.08029 10.1518 7.08144 10.1829 7.08456 10.2161C7.39283 13.4105 8.47944 16.4907 10.2272 19.1243C10.5076 19.5476 11.0631 19.6515 11.467 19.3554C11.6618 19.2114 11.7921 18.9961 11.8332 18.7494C11.8747 18.5021 11.8224 18.253 11.6859 18.0473C10.121 15.6892 9.14422 12.9323 8.86065 10.0727V9.35325C12.848 9.6332 16.5757 11.4763 19.3972 14.5728C21.8356 17.2482 23.3656 20.6138 23.8226 24.2198C16.8113 18.5231 6.65025 19.0842 0.266549 25.6797C0.0956661 25.8567 0.0011511 26.0932 1.56662e-05 26.345C-0.00140363 26.5944 0.0936735 26.8387 0.260866 27.0142L1.42582 28.2426C1.4474 28.266 1.47012 28.2878 1.49623 28.3106C4.68028 31.0477 8.70369 32.5552 12.8256 32.5552C12.8262 32.5552 12.827 32.5552 12.827 32.5552H12.8602C16.0817 32.5525 19.2411 31.6397 21.9973 29.9151C22.2017 29.7872 22.3465 29.5827 22.4061 29.3396C22.4629 29.0968 22.4288 28.8438 22.3096 28.6283C22.1875 28.413 21.9945 28.2597 21.7646 28.1977C21.5318 28.1351 21.2934 28.172 21.089 28.2998C18.6081 29.8513 15.7638 30.6732 12.8631 30.6771H12.8176C9.12238 30.6747 5.51454 29.328 2.65637 26.8839L2.17353 26.3755C5.18385 23.5944 9.04716 22.1066 13.1117 22.1746C17.3194 22.2459 21.2707 23.9863 24.2313 27.0752C24.2342 27.0764 24.2342 27.0776 24.237 27.0785C24.237 27.0806 24.2398 27.0824 24.2398 27.0842C27.6405 30.6283 32.1652 32.5801 36.9823 32.5801C36.9823 32.5801 36.9822 32.5801 36.9851 32.5801C41.805 32.5798 46.3354 30.6256 49.736 27.0773C49.9035 26.9019 50 26.6585 50 26.4097C50 26.1606 49.9035 25.9175 49.736 25.7423" fill="#2C2A2A"/>
<path d="M11.6629 49.9485C11.4351 49.9485 11.2436 49.8671 11.0883 49.7043C10.9433 49.5414 10.8709 49.346 10.8709 49.1181V41.0905C10.8709 40.3849 11.0003 39.739 11.2591 39.1528C11.518 38.5667 11.901 38.0999 12.4084 37.7525C12.926 37.4051 13.568 37.2314 14.3341 37.2314C14.5723 37.2314 14.8259 37.2532 15.0951 37.2966C15.3643 37.3291 15.6439 37.3888 15.9338 37.4757C16.2754 37.5734 16.5187 37.6928 16.6637 37.8339C16.8086 37.9642 16.8811 38.1433 16.8811 38.3713C16.8811 38.6426 16.8034 38.8272 16.6481 38.9249C16.5032 39.0117 16.2651 39.0063 15.9338 38.9086C15.6439 38.8218 15.3695 38.7729 15.1106 38.7621C14.8622 38.7403 14.6292 38.7295 14.4118 38.7295C13.832 38.7295 13.3609 38.9249 12.9985 39.3157C12.6361 39.7065 12.455 40.2438 12.455 40.9277V49.1181C12.455 49.346 12.3773 49.5414 12.222 49.7043C12.0771 49.8671 11.8907 49.9485 11.6629 49.9485ZM10.2031 42.7677C9.98564 42.7677 9.80963 42.7026 9.67504 42.5723C9.54044 42.442 9.47314 42.2792 9.47314 42.0838C9.47314 41.8667 9.54044 41.693 9.67504 41.5627C9.80963 41.4325 9.98564 41.3673 10.2031 41.3673H13.7284C13.9459 41.3673 14.1219 41.4325 14.2565 41.5627C14.3911 41.693 14.4584 41.8667 14.4584 42.0838C14.4584 42.2792 14.3911 42.442 14.2565 42.5723C14.1219 42.7026 13.9459 42.7677 13.7284 42.7677H10.2031ZM18.1235 49.9485C17.668 49.9485 17.2642 49.8182 16.9122 49.5577C16.5601 49.2972 16.2858 48.9444 16.0891 48.4993C15.8923 48.0434 15.794 47.5223 15.794 46.9361V38.0456C15.794 37.8068 15.8665 37.6114 16.0114 37.4594C16.1564 37.3074 16.3427 37.2314 16.5705 37.2314C16.7983 37.2314 16.9846 37.3074 17.1296 37.4594C17.2745 37.6114 17.347 37.8068 17.347 38.0456V46.9361C17.347 47.3378 17.4195 47.6689 17.5644 47.9294C17.7094 48.1899 17.8957 48.3202 18.1235 48.3202H18.5118C18.7189 48.3202 18.8845 48.3962 19.0088 48.5482C19.1433 48.7001 19.2106 48.8955 19.2106 49.1344C19.2106 49.3732 19.1123 49.5686 18.9156 49.7205C18.7189 49.8725 18.4652 49.9485 18.1546 49.9485H18.1235ZM24.1522 50.0136C23.3135 50.0136 22.5733 49.8237 21.9313 49.4437C21.2894 49.0529 20.7821 48.521 20.4094 47.848C20.047 47.1641 19.8658 46.3825 19.8658 45.5032C19.8658 44.6131 20.047 43.8315 20.4094 43.1585C20.7821 42.4746 21.2894 41.9427 21.9313 41.5627C22.5733 41.1719 23.3135 40.9765 24.1522 40.9765C24.9805 40.9765 25.7156 41.1719 26.3575 41.5627C26.9994 41.9427 27.5015 42.4746 27.8639 43.1585C28.2366 43.8315 28.423 44.6131 28.423 45.5032C28.423 46.3825 28.2418 47.1641 27.8795 47.848C27.5171 48.521 27.0149 49.0529 26.373 49.4437C25.7311 49.8237 24.9908 50.0136 24.1522 50.0136ZM24.1522 48.5482C24.6906 48.5482 25.1668 48.4179 25.581 48.1574C25.9951 47.8968 26.3161 47.5386 26.5438 47.0827C26.782 46.6268 26.901 46.1003 26.901 45.5032C26.901 44.9062 26.782 44.3797 26.5438 43.9238C26.3161 43.457 25.9951 43.0933 25.581 42.8328C25.1668 42.5723 24.6906 42.442 24.1522 42.442C23.6138 42.442 23.1375 42.5723 22.7234 42.8328C22.3093 43.0933 21.9831 43.457 21.745 43.9238C21.5069 44.3797 21.3878 44.9062 21.3878 45.5032C21.3878 46.1003 21.5069 46.6268 21.745 47.0827C21.9831 47.5386 22.3093 47.8968 22.7234 48.1574C23.1375 48.4179 23.6138 48.5482 24.1522 48.5482ZM32.2673 49.9485C32.1016 49.9485 31.9463 49.8997 31.8014 49.802C31.6668 49.6934 31.5736 49.5631 31.5218 49.4112L29.2233 42.1815C29.1405 41.845 29.1405 41.5736 29.2233 41.3673C29.3165 41.1502 29.5132 41.0417 29.8135 41.0417C30.0102 41.0417 30.1707 41.1014 30.2949 41.2208C30.4295 41.3293 30.5382 41.5193 30.6211 41.7907L32.5779 48.2062H32.0343L33.8824 41.6604C33.9342 41.4759 34.0222 41.3293 34.1464 41.2208C34.2707 41.1014 34.4415 41.0417 34.6589 41.0417C34.866 41.0417 35.0317 41.1014 35.1559 41.2208C35.2905 41.3293 35.3785 41.4759 35.4199 41.6604L36.9264 47.8154H36.6934L38.526 41.7907C38.6709 41.2914 38.9401 41.0417 39.3336 41.0417C39.6235 41.0417 39.8202 41.1502 39.9237 41.3673C40.0273 41.5736 40.0221 41.845 39.9082 42.1815L37.6097 49.4112C37.5683 49.5631 37.4803 49.6934 37.3457 49.802C37.2111 49.8997 37.0558 49.9485 36.8798 49.9485C36.7141 49.9485 36.5588 49.8997 36.4139 49.802C36.2689 49.6934 36.1757 49.5631 36.1343 49.4112L34.5347 43.2073H34.69L33.0127 49.4112C32.9713 49.5631 32.8781 49.6934 32.7332 49.802C32.5986 49.8997 32.4433 49.9485 32.2673 49.9485Z" fill="#2C2A2A"/>
</svg>
