<svg width="30" height="30" viewBox="0 0 30 30" fill="none" xmlns="http://www.w3.org/2000/svg">
<path fill-rule="evenodd" clip-rule="evenodd" d="M28.6 15.322C28.6 14.3175 28.5098 13.3516 28.3424 12.4243H15V17.9042H22.6242C22.2958 19.6751 21.2977 21.1755 19.7973 22.18V25.7346H24.3757C27.0545 23.2683 28.6 19.6364 28.6 15.322Z" fill="#4285F4"/>
<path fill-rule="evenodd" clip-rule="evenodd" d="M15 29.1667C18.825 29.1667 22.0318 27.8982 24.3758 25.7345L19.7973 22.18C18.5288 23.03 16.9061 23.5323 15 23.5323C11.3102 23.5323 8.1871 21.0402 7.07308 17.6917H2.34012V21.3622C4.67118 25.9921 9.4621 29.1667 15 29.1667Z" fill="#34A853"/>
<path fill-rule="evenodd" clip-rule="evenodd" d="M7.0731 17.6918C6.78976 16.8418 6.62878 15.9338 6.62878 15.0001C6.62878 14.0664 6.78976 13.1584 7.0731 12.3084V8.63797H2.34013C1.38066 10.5505 0.833313 12.7141 0.833313 15.0001C0.833313 17.2861 1.38066 19.4497 2.34013 21.3622L7.0731 17.6918Z" fill="#FBBC05"/>
<path fill-rule="evenodd" clip-rule="evenodd" d="M15 6.46788C17.0799 6.46788 18.9473 7.18266 20.4155 8.58645L24.4788 4.52318C22.0254 2.23719 18.8186 0.833405 15 0.833405C9.4621 0.833405 4.67118 4.00803 2.34012 8.63796L7.07308 12.3084C8.1871 8.95993 11.3102 6.46788 15 6.46788Z" fill="#EA4335"/>
</svg>
